<svg width="64" height="64" viewBox="0 0 64 64" fill="none" xmlns="http://www.w3.org/2000/svg">
<path fill-rule="evenodd" clip-rule="evenodd" d="M15.5292 4.32092C13.2013 4.62785 11.9687 5.18928 11.0906 6.05036C10.2127 6.91148 9.64022 8.12042 9.32721 10.4034C9.00511 12.7536 9 15.8683 9 20.3343V44.9941C10.1175 44.2283 11.3769 43.6454 12.7346 43.2889C14.2531 42.8898 16.0238 42.8904 18.6187 42.8912H55V20.3343C55 15.8683 54.9948 12.7536 54.6728 10.4034C54.3597 8.12042 53.7873 6.91148 52.9094 6.05036C52.0313 5.18928 50.7988 4.62785 48.4709 4.32092C46.0746 4.00494 42.8985 4 38.3448 4H25.6552C21.1014 4 17.9254 4.00494 15.5292 4.32092ZM16.931 17.223C16.931 15.9343 17.9963 14.8895 19.3103 14.8895H44.6897C46.0038 14.8895 47.069 15.9343 47.069 17.223C47.069 18.5118 46.0038 19.5565 44.6897 19.5565H19.3103C17.9963 19.5565 16.931 18.5118 16.931 17.223ZM19.3103 25.7791C17.9963 25.7791 16.931 26.8238 16.931 28.1127C16.931 29.4014 17.9963 30.446 19.3103 30.446H35.1723C36.4864 30.446 37.5517 29.4014 37.5517 28.1127C37.5517 26.8238 36.4864 25.7791 35.1723 25.7791H19.3103Z" fill="#3059E4"/>
<path d="M22.4837 45.9992H18.987C15.8836 45.9992 14.7987 46.0192 13.9672 46.2377C11.6852 46.8374 9.86603 48.5009 9.08587 50.6634C9.13412 51.764 9.20976 52.732 9.32824 53.5966C9.64124 55.8797 10.2137 57.0887 11.0916 57.9498C11.9697 58.811 13.2024 59.3721 15.5303 59.6792C17.9265 59.9952 21.1024 60 25.6562 60H38.3459C42.8994 60 46.0755 59.9952 48.4718 59.6792C50.7997 59.3721 52.0322 58.811 52.9102 57.9498C53.7883 57.0887 54.3607 55.8797 54.6738 53.5966C54.9365 51.6794 54.9882 49.2529 54.9983 45.9992H35.1732V54.652C35.1732 55.5096 35.1732 55.9381 34.8725 56.1114C34.5715 56.2847 34.1601 56.0929 33.337 55.7096L29.3959 53.8738C29.1176 53.7439 28.9782 53.6791 28.8287 53.6791C28.6789 53.6791 28.5394 53.7439 28.2611 53.8738L24.3201 55.7096C23.4972 56.0929 23.0856 56.2847 22.7846 56.1114C22.4837 55.9381 22.4837 55.5096 22.4837 54.652V45.9992Z" fill="#3059E4"/>
</svg>
