<svg width="64" height="64" viewBox="0 0 64 64" fill="none" xmlns="http://www.w3.org/2000/svg">
<path fill-rule="evenodd" clip-rule="evenodd" d="M7.39692 33.2832C8.18689 34.0741 8.18612 35.3557 7.39516 36.1456L6.98012 36.5603C6.62556 36.9144 6.62556 37.4875 6.98012 37.8416C7.33601 38.1971 7.91404 38.1971 8.26993 37.8416L12.8356 33.2813C13.6265 32.4915 14.9081 32.4923 15.6981 33.2832C16.4881 34.0741 16.4873 35.3557 15.6964 36.1456L11.1307 40.7056C9.19428 42.6397 6.05577 42.6397 4.11935 40.7056C2.18157 38.7704 2.18157 35.6315 4.11935 33.696L4.53441 33.2813C5.32535 32.4915 6.60692 32.4923 7.39692 33.2832ZM20.4971 35.9717C21.2875 36.7624 21.2875 38.044 20.4971 38.8344L14.784 44.5475C13.9935 45.3379 12.7119 45.3379 11.9215 44.5475C11.131 43.7568 11.131 42.4755 11.9215 41.6848L17.6346 35.9717C18.425 35.1813 19.7066 35.1813 20.4971 35.9717ZM27.9881 43.4536C28.7785 44.2443 28.7785 45.5259 27.9881 46.3163L22.3141 51.9901C21.5237 52.7805 20.2421 52.7805 19.4516 51.9901C18.6611 51.1997 18.6611 49.9181 19.4516 49.1277L25.1257 43.4536C25.9161 42.6632 27.1977 42.6632 27.9881 43.4536ZM19.4585 44.5221C20.2401 45.3213 20.2259 46.6027 19.4267 47.3843L14.8129 51.8965C14.0137 52.6781 12.7322 52.6637 11.9506 51.8645C11.1689 51.0653 11.1832 49.784 11.9824 49.0024L16.5962 44.4901C17.3954 43.7085 18.6769 43.7229 19.4585 44.5221ZM30.6156 48.3141C31.4057 49.1051 31.4049 50.3867 30.614 51.1768L26.0482 55.7368C25.6937 56.0909 25.6937 56.664 26.0482 57.0181C26.4041 57.3736 26.9823 57.3736 27.338 57.0181L27.7532 56.6035C28.5441 55.8136 29.8257 55.8144 30.6156 56.6053C31.4057 57.3963 31.4049 58.6779 30.614 59.4677L30.1988 59.8824C28.2625 61.8163 25.1239 61.8163 23.1875 59.8824C21.2497 57.9469 21.2497 54.808 23.1875 52.8725L27.7532 48.3125C28.5441 47.5224 29.8257 47.5232 30.6156 48.3141Z" fill="#3059E4"/>
<path d="M28.9234 14.424L23.0896 20.2403C22.0173 21.3093 21.0336 22.29 20.2568 23.1765C19.7579 23.7458 19.2594 24.3689 18.8371 25.0574L18.7803 25.0008C18.6724 24.8932 18.6184 24.8393 18.5642 24.7868C17.5502 23.8029 16.3574 23.0206 15.0498 22.4819C14.9799 22.4531 14.909 22.425 14.7671 22.3688L13.8985 22.0246C12.7218 21.5584 12.4082 20.0435 13.3036 19.1509C15.8733 16.589 18.9586 13.513 20.4476 12.8952C21.7607 12.3504 23.1793 12.1691 24.5474 12.3713C25.801 12.5565 26.9869 13.2005 28.9234 14.424Z" fill="#3059E4"/>
<path d="M38.8848 45.0491C39.355 45.5264 39.6672 45.8632 39.9494 46.2235C40.3219 46.6987 40.655 47.2035 40.9451 47.7326C41.2718 48.3283 41.5256 48.9646 42.0328 50.2374C42.4459 51.2734 43.8179 51.5472 44.615 50.7526L44.8078 50.5603C47.3774 47.9984 50.4627 44.9224 51.0822 43.4379C51.6288 42.1288 51.8107 40.7144 51.6078 39.3504C51.4219 38.1008 50.7763 36.9187 49.5494 34.9883L43.696 40.824C42.5995 41.9174 41.5939 42.92 40.6846 43.7054C40.1395 44.176 39.5432 44.6464 38.8848 45.0491Z" fill="#3059E4"/>
<path fill-rule="evenodd" clip-rule="evenodd" d="M41.3385 38.3137L54.7508 24.9417C56.6825 23.0159 57.6484 22.053 58.1569 20.8286C58.6657 19.6041 58.6657 18.2424 58.6657 15.519V14.2179C58.6657 10.03 58.6657 7.936 57.3606 6.63499C56.0558 5.33398 53.9556 5.33398 49.755 5.33398H48.45C45.7182 5.33398 44.3524 5.33398 43.1244 5.84115C41.8961 6.34835 40.9305 7.31123 38.9988 9.23702L25.5863 22.6091C23.3292 24.8594 21.9297 26.2547 21.3878 27.6023C21.2166 28.0281 21.1309 28.4492 21.1309 28.8911C21.1309 30.7308 22.616 32.2116 25.5863 35.1729L25.9855 35.5708L30.6617 30.8249C31.3286 30.1481 32.418 30.1399 33.0948 30.8068C33.7716 31.4737 33.7798 32.5631 33.1129 33.2399L28.4222 38.0004L28.7366 38.3137C31.707 41.2751 33.1921 42.7556 35.0374 42.7556C35.4454 42.7556 35.8356 42.6833 36.2278 42.5388C37.6118 42.0292 39.0244 40.6207 41.3385 38.3137ZM47.6396 22.6101C45.8996 24.3448 43.0785 24.3448 41.3388 22.6101C39.5988 20.8754 39.5988 18.0629 41.3388 16.3282C43.0785 14.5935 45.8996 14.5935 47.6396 16.3282C49.3796 18.0629 49.3796 20.8754 47.6396 22.6101Z" fill="#3059E4"/>
</svg>
