<svg width="64" height="64" viewBox="0 0 64 64" fill="none" xmlns="http://www.w3.org/2000/svg">
<path fill-rule="evenodd" clip-rule="evenodd" d="M19.4477 38.1144C18.4063 39.1557 18.4063 40.8443 19.4477 41.8856C20.4891 42.9269 22.1776 42.9269 23.219 41.8856L29.8856 35.2189C31.6635 33.4411 31.6635 30.5589 29.8856 28.7811L23.219 22.1144C22.1776 21.073 20.4891 21.073 19.4477 22.1144C18.4063 23.1558 18.4063 24.8442 19.4477 25.8856L25.5621 32L19.4477 38.1144ZM34.6667 37.3333C33.1939 37.3333 32 38.5272 32 40C32 41.4728 33.1939 42.6667 34.6667 42.6667H42.6667C44.1395 42.6667 45.3333 41.4728 45.3333 40C45.3333 38.5272 44.1395 37.3333 42.6667 37.3333H34.6667ZM58.6666 21.1578C58.6666 21.2161 58.6666 21.2746 58.6666 21.3334V42.8421C58.6669 45.2061 58.6669 47.2429 58.4477 48.8741C58.2125 50.6221 57.6826 52.2979 56.3234 53.6568C54.9645 55.016 53.2888 55.5459 51.5408 55.7811C49.9096 56.0003 47.8728 56.0003 45.5088 56H18.4912C16.1272 56.0003 14.0903 56.0003 12.4592 55.7811C10.7112 55.5459 9.03559 55.016 7.67649 53.6568C6.31737 52.2979 5.7874 50.6221 5.55239 48.8741C5.33308 47.2429 5.33319 45.2061 5.33332 42.8421V21.1579C5.33319 18.7939 5.33308 16.757 5.55239 15.1259C5.7874 13.3779 6.31737 11.7023 7.67649 10.3432C9.03559 8.98406 10.7112 8.45409 12.4592 8.21907C14.0903 7.99977 16.1272 7.99987 18.4911 8.00001L45.3333 8.00003C45.392 8.00003 45.4507 8.00001 45.5088 8.00001C47.8728 7.99987 49.9096 7.99977 51.5408 8.21907C53.2888 8.45409 54.9645 8.98406 56.3234 10.3432C57.6826 11.7023 58.2125 13.3779 58.4477 15.1259C58.6669 16.757 58.6669 18.7938 58.6666 21.1578Z" fill="#4275EF"/>
</svg>
