<svg width="640" height="176" viewBox="0 0 640 176" fill="none" xmlns="http://www.w3.org/2000/svg">
<path d="M0 12C0 5.37258 5.37258 0 12 0H628C634.627 0 640 5.37258 640 12V164C640 170.627 634.627 176 628 176H12C5.37259 176 0 170.627 0 164V12Z" fill="url(#paint0_linear_6364_1458)"/>
<path fill-rule="evenodd" clip-rule="evenodd" d="M209.017 93.3501C208.106 94.2613 208.106 95.7387 209.017 96.6499C209.928 97.5611 211.406 97.5611 212.317 96.6499L218.15 90.8166C219.706 89.2609 219.706 86.7391 218.15 85.1834L212.317 79.3501C211.406 78.4389 209.928 78.4389 209.017 79.3501C208.106 80.2613 208.106 81.7387 209.017 82.6499L214.367 88L209.017 93.3501ZM222.334 92.6667C221.045 92.6667 220 93.7113 220 95C220 96.2887 221.045 97.3333 222.334 97.3333H229.334C230.622 97.3333 231.667 96.2887 231.667 95C231.667 93.7113 230.622 92.6667 229.334 92.6667H222.334ZM243.334 78.5131C243.334 78.5641 243.334 78.6153 243.334 78.6667V97.4869C243.334 99.5554 243.334 101.338 243.142 102.765C242.936 104.294 242.473 105.761 241.283 106.95C240.094 108.139 238.628 108.603 237.099 108.808C235.671 109 233.889 109 231.821 109H208.18C206.112 109 204.329 109 202.902 108.808C201.373 108.603 199.906 108.139 198.717 106.95C197.528 105.761 197.064 104.294 196.859 102.765C196.667 101.338 196.667 99.5554 196.667 97.4869V78.5131C196.667 76.4446 196.667 74.6624 196.859 73.2352C197.064 71.7056 197.528 70.2395 198.717 69.0503C199.906 67.8611 201.373 67.3973 202.902 67.1917C204.329 66.9998 206.112 66.9999 208.18 67L231.667 67C231.718 67 231.77 67 231.821 67C233.889 66.9999 235.671 66.9998 237.099 67.1917C238.628 67.3973 240.094 67.8611 241.283 69.0503C242.473 70.2395 242.936 71.7056 243.142 73.2352C243.334 74.6624 243.334 76.4446 243.334 78.5131Z" fill="#F3F4F6"/>
<path d="M269.786 102V74.2909H277.309V95.9386H288.511V102H269.786ZM300.672 102.379C298.417 102.379 296.487 101.932 294.882 101.039C293.276 100.137 292.045 98.8836 291.188 97.2781C290.331 95.6635 289.903 93.7919 289.903 91.6632C289.903 89.5345 290.331 87.6674 291.188 86.0619C292.045 84.4473 293.276 83.1935 294.882 82.3006C296.487 81.3986 298.417 80.9476 300.672 80.9476C302.927 80.9476 304.858 81.3986 306.463 82.3006C308.069 83.1935 309.3 84.4473 310.157 86.0619C311.014 87.6674 311.442 89.5345 311.442 91.6632C311.442 93.7919 311.014 95.6635 310.157 97.2781C309.3 98.8836 308.069 100.137 306.463 101.039C304.858 101.932 302.927 102.379 300.672 102.379ZM300.726 96.8587C301.358 96.8587 301.904 96.6467 302.364 96.2228C302.824 95.7988 303.18 95.1945 303.432 94.4098C303.685 93.625 303.811 92.6915 303.811 91.6091C303.811 90.5177 303.685 89.5841 303.432 88.8084C303.18 88.0237 302.824 87.4194 302.364 86.9954C301.904 86.5715 301.358 86.3595 300.726 86.3595C300.059 86.3595 299.486 86.5715 299.008 86.9954C298.53 87.4194 298.165 88.0237 297.912 88.8084C297.66 89.5841 297.533 90.5177 297.533 91.6091C297.533 92.6915 297.66 93.625 297.912 94.4098C298.165 95.1945 298.53 95.7988 299.008 96.2228C299.486 96.6467 300.059 96.8587 300.726 96.8587ZM323.485 110.226C321.401 110.226 319.615 109.928 318.127 109.333C316.648 108.747 315.498 107.935 314.677 106.898C313.865 105.87 313.41 104.688 313.31 103.353H320.508C320.58 103.795 320.761 104.151 321.049 104.422C321.338 104.692 321.708 104.886 322.159 105.004C322.619 105.13 323.133 105.193 323.701 105.193C324.666 105.193 325.465 104.959 326.096 104.489C326.737 104.02 327.057 103.173 327.057 101.946V98.4281H326.84C326.57 99.1317 326.155 99.7315 325.596 100.228C325.036 100.715 324.364 101.089 323.58 101.351C322.795 101.603 321.933 101.729 320.995 101.729C319.516 101.729 318.154 101.387 316.909 100.701C315.674 100.016 314.681 98.9287 313.933 97.4404C313.193 95.9522 312.823 94.0084 312.823 91.6091C312.823 89.1016 313.211 87.0631 313.987 85.4936C314.772 83.9241 315.782 82.7741 317.018 82.0435C318.262 81.3129 319.57 80.9476 320.941 80.9476C321.97 80.9476 322.872 81.128 323.647 81.4888C324.423 81.8406 325.072 82.3141 325.596 82.9094C326.119 83.4957 326.516 84.1406 326.786 84.8442H326.948V81.2182H334.417V101.946C334.417 103.705 333.961 105.198 333.05 106.424C332.148 107.66 330.877 108.603 329.235 109.252C327.593 109.901 325.677 110.226 323.485 110.226ZM323.755 96.4257C324.441 96.4257 325.027 96.2363 325.514 95.8575C326.01 95.4696 326.389 94.9194 326.651 94.2068C326.921 93.4852 327.057 92.6193 327.057 91.6091C327.057 90.5808 326.921 89.7014 326.651 88.9708C326.389 88.2311 326.01 87.6674 325.514 87.2795C325.027 86.8827 324.441 86.6842 323.755 86.6842C323.07 86.6842 322.484 86.8827 321.997 87.2795C321.519 87.6674 321.149 88.2311 320.887 88.9708C320.635 89.7014 320.508 90.5808 320.508 91.6091C320.508 92.6374 320.635 93.5123 320.887 94.2339C321.149 94.9464 321.519 95.4922 321.997 95.871C322.484 96.2408 323.07 96.4257 323.755 96.4257ZM347.228 110.226C345.144 110.226 343.358 109.928 341.87 109.333C340.39 108.747 339.24 107.935 338.42 106.898C337.608 105.87 337.152 104.688 337.053 103.353H344.251C344.323 103.795 344.504 104.151 344.792 104.422C345.081 104.692 345.451 104.886 345.902 105.004C346.362 105.13 346.876 105.193 347.444 105.193C348.409 105.193 349.207 104.959 349.839 104.489C350.479 104.02 350.799 103.173 350.799 101.946V98.4281H350.583C350.312 99.1317 349.897 99.7315 349.338 100.228C348.779 100.715 348.107 101.089 347.322 101.351C346.538 101.603 345.676 101.729 344.738 101.729C343.259 101.729 341.897 101.387 340.652 100.701C339.416 100.016 338.424 98.9287 337.675 97.4404C336.936 95.9522 336.566 94.0084 336.566 91.6091C336.566 89.1016 336.954 87.0631 337.73 85.4936C338.514 83.9241 339.525 82.7741 340.76 82.0435C342.005 81.3129 343.313 80.9476 344.684 80.9476C345.712 80.9476 346.614 81.128 347.39 81.4888C348.166 81.8406 348.815 82.3141 349.338 82.9094C349.861 83.4957 350.258 84.1406 350.529 84.8442H350.691V81.2182H358.16V101.946C358.16 103.705 357.704 105.198 356.793 106.424C355.891 107.66 354.619 108.603 352.978 109.252C351.336 109.901 349.419 110.226 347.228 110.226ZM347.498 96.4257C348.184 96.4257 348.77 96.2363 349.257 95.8575C349.753 95.4696 350.132 94.9194 350.394 94.2068C350.664 93.4852 350.799 92.6193 350.799 91.6091C350.799 90.5808 350.664 89.7014 350.394 88.9708C350.132 88.2311 349.753 87.6674 349.257 87.2795C348.77 86.8827 348.184 86.6842 347.498 86.6842C346.813 86.6842 346.226 86.8827 345.739 87.2795C345.261 87.6674 344.891 88.2311 344.63 88.9708C344.377 89.7014 344.251 90.5808 344.251 91.6091C344.251 92.6374 344.377 93.5123 344.63 94.2339C344.891 94.9464 345.261 95.4922 345.739 95.871C346.226 96.2408 346.813 96.4257 347.498 96.4257ZM360.958 102V81.2182H368.427V102H360.958ZM364.692 79.0534C363.682 79.0534 362.816 78.7197 362.095 78.0522C361.373 77.3847 361.012 76.582 361.012 75.6439C361.012 74.7058 361.373 73.9031 362.095 73.2356C362.816 72.5681 363.682 72.2344 364.692 72.2344C365.712 72.2344 366.578 72.5681 367.29 73.2356C368.012 73.9031 368.372 74.7058 368.372 75.6439C368.372 76.582 368.012 77.3847 367.29 78.0522C366.578 78.7197 365.712 79.0534 364.692 79.0534ZM378.7 90.3102V102H371.232V81.2182H378.321V85.1689H378.538C378.989 83.852 379.783 82.8192 380.919 82.0706C382.065 81.3219 383.4 80.9476 384.924 80.9476C386.394 80.9476 387.671 81.2858 388.753 81.9623C389.844 82.6298 390.688 83.5498 391.283 84.7224C391.887 85.895 392.185 87.2344 392.176 88.7408V102H384.708V90.3102C384.717 89.282 384.455 88.4747 383.923 87.8884C383.4 87.3021 382.669 87.0089 381.731 87.0089C381.118 87.0089 380.581 87.1442 380.121 87.4148C379.67 87.6764 379.323 88.0553 379.079 88.5513C378.836 89.0384 378.709 89.6247 378.7 90.3102ZM402.331 74.2909V102H394.863V74.2909H402.331ZM409.683 109.793C408.826 109.793 408.009 109.726 407.234 109.59C406.458 109.464 405.777 109.288 405.191 109.063L406.814 103.759C407.428 103.975 407.987 104.115 408.492 104.178C409.006 104.241 409.444 104.205 409.804 104.07C410.174 103.935 410.44 103.678 410.603 103.299L410.765 102.92L403.459 81.2182H411.252L414.608 95.6139H414.824L418.234 81.2182H426.081L418.504 103.732C418.125 104.877 417.575 105.906 416.853 106.817C416.141 107.737 415.203 108.463 414.039 108.995C412.876 109.527 411.424 109.793 409.683 109.793ZM446.201 87.9831H439.328C439.292 87.5592 439.143 87.1939 438.881 86.8872C438.62 86.5805 438.281 86.346 437.867 86.1836C437.461 86.0123 437.01 85.9266 436.514 85.9266C435.873 85.9266 435.323 86.0438 434.863 86.2783C434.403 86.5129 434.177 86.8466 434.186 87.2795C434.177 87.5862 434.308 87.8703 434.579 88.1319C434.858 88.3935 435.395 88.5964 436.189 88.7408L440.41 89.4984C442.539 89.8863 444.122 90.5402 445.159 91.4603C446.205 92.3713 446.733 93.5935 446.742 95.1268C446.733 96.6061 446.291 97.8914 445.416 98.9828C444.55 100.065 443.364 100.904 441.858 101.499C440.361 102.086 438.651 102.379 436.73 102.379C433.555 102.379 431.07 101.729 429.275 100.431C427.489 99.1317 426.492 97.4179 426.285 95.2892H433.699C433.799 95.9477 434.123 96.4573 434.673 96.8181C435.233 97.1699 435.936 97.3457 436.784 97.3457C437.47 97.3457 438.033 97.2285 438.475 96.994C438.926 96.7594 439.156 96.4257 439.165 95.9928C439.156 95.5959 438.958 95.2802 438.57 95.0457C438.191 94.8112 437.596 94.6217 436.784 94.4774L433.104 93.828C430.984 93.4582 429.397 92.7546 428.342 91.7173C427.286 90.68 426.763 89.3451 426.772 87.7125C426.763 86.2693 427.142 85.0471 427.909 84.0459C428.684 83.0357 429.789 82.269 431.223 81.7458C432.667 81.2137 434.376 80.9476 436.351 80.9476C439.355 80.9476 441.723 81.57 443.454 82.8147C445.195 84.0594 446.111 85.7822 446.201 87.9831Z" fill="#F3F4F6"/>
<defs>
<linearGradient id="paint0_linear_6364_1458" x1="0" y1="0" x2="604.091" y2="259.57" gradientUnits="userSpaceOnUse">
<stop stop-color="#171717"/>
<stop offset="1" stop-color="#262626"/>
</linearGradient>
</defs>
</svg>
